<?xml version="1.0" standalone="no"?>
<!DOCTYPE svg PUBLIC "-//W3C//DTD SVG 20010904//EN"
 "http://www.w3.org/TR/2001/REC-SVG-20010904/DTD/svg10.dtd">
<svg version="1.0" xmlns="http://www.w3.org/2000/svg"
 width="512.000000pt" height="512.000000pt" viewBox="0 0 512.000000 512.000000"
 preserveAspectRatio="xMidYMid meet">
<metadata>
Created by potrace 1.14, written by Peter Selinger 2001-2017
</metadata>
<g transform="translate(0.000000,512.000000) scale(0.100000,-0.100000)"
fill="#000000" stroke="none">
<path d="M2739 4410 c-295 -66 -533 -267 -644 -545 -141 -353 -37 -777 248
-1011 26 -21 58 -47 70 -57 42 -36 223 -116 307 -136 109 -26 231 -31 343 -13
49 7 90 12 91 10 13 -15 96 -250 92 -257 -3 -5 -18 -12 -33 -16 -83 -20 -153
-100 -153 -174 0 -29 55 -172 275 -706 45 -110 120 -292 165 -405 46 -113 96
-223 111 -246 106 -156 323 -210 479 -120 56 33 73 48 110 96 51 66 60 85 74
158 18 101 5 160 -79 357 -7 17 -43 104 -80 195 -36 91 -71 174 -76 185 -5 11
-71 174 -148 362 -77 188 -144 351 -150 362 -6 11 -27 32 -46 47 -50 38 -120
41 -193 8 -31 -13 -59 -21 -62 -17 -8 9 -26 54 -71 176 -26 71 -27 78 -11 84
39 15 141 91 203 152 163 163 257 381 263 608 3 94 -14 224 -35 275 -11 26
-71 64 -87 54 -14 -8 -28 7 -52 54 -13 25 -40 70 -61 101 -26 39 -35 60 -28
70 5 8 9 31 9 52 0 68 -69 112 -136 88 -31 -11 -38 -9 -101 27 -38 22 -85 46
-105 53 -32 11 -38 18 -38 41 0 16 -11 40 -27 58 -23 24 -41 32 -97 40 -95 15
-235 10 -327 -10z"/>
<path d="M1323 4155 c-17 -7 -37 -24 -44 -37 -10 -18 -12 -151 -13 -568 0
-508 1 -547 18 -572 10 -15 32 -32 50 -36 17 -5 137 -9 266 -8 206 1 238 3
261 19 53 36 53 114 0 161 -19 18 -38 20 -206 20 -102 0 -185 2 -186 5 -1 9
-1 263 0 289 1 22 2 22 162 22 157 0 185 5 216 36 20 20 27 71 13 103 -23 56
-42 61 -225 61 l-165 0 -1 33 c-1 39 -1 197 0 250 l1 37 183 0 c174 0 183 1
210 23 56 45 50 129 -12 161 -41 22 -479 23 -528 1z"/>
<path d="M4517 4144 c-1 -1 -27 -4 -57 -7 -239 -25 -449 -213 -506 -455 -20
-85 -14 -234 14 -312 49 -139 147 -262 262 -327 201 -115 454 -105 634 24 73
52 92 70 140 138 79 110 106 189 112 322 7 172 -49 315 -171 438 -101 102
-211 156 -353 173 -40 5 -73 8 -75 6z m181 -243 c144 -73 225 -210 218 -370
-7 -155 -110 -293 -256 -347 -68 -24 -182 -26 -249 -3 -111 39 -181 101 -233
208 -31 61 -33 73 -33 166 0 91 3 106 30 160 75 150 207 228 375 221 71 -3 95
-8 148 -35z"/>
<path d="M29 4109 l-29 -31 0 -519 c0 -366 3 -525 11 -543 12 -25 63 -56 94
-56 23 0 72 30 82 49 4 9 10 115 13 236 l5 220 238 2 237 3 0 -216 c0 -248 4
-266 70 -285 49 -15 89 -1 113 40 15 26 17 78 17 541 0 546 -1 554 -49 580
-39 20 -91 12 -122 -19 l-29 -29 0 -206 0 -206 -240 0 -240 0 0 195 c0 246
-11 275 -105 275 -28 0 -44 -7 -66 -31z"/>
</g>
</svg>
